<svg xmlns="http://www.w3.org/2000/svg" viewBox="0 0 640 380" role="img" aria-labelledby="title desc">
  <title id="title">Education and student support illustration</title>
  <desc id="desc">An open book, backpack, pencil, stars, and a rising path in navy, gold, and cream.</desc>
  <defs>
    <linearGradient id="bg" x1="0" y1="0" x2="1" y2="1"><stop stop-color="#315f75"/><stop offset="1" stop-color="#17324d"/></linearGradient>
    <filter id="shadow" x="-20%" y="-20%" width="140%" height="140%"><feDropShadow dx="0" dy="10" stdDeviation="10" flood-color="#0d2538" flood-opacity=".28"/></filter>
  </defs>
  <rect width="640" height="380" rx="34" fill="url(#bg)"/>
  <circle cx="92" cy="74" r="52" fill="#e6ad57" opacity=".18"/>
  <circle cx="560" cy="306" r="72" fill="#f7e7ca" opacity=".09"/>
  <path d="M56 304c103-85 185-53 265-118 70-56 135-68 262-26" fill="none" stroke="#e6ad57" stroke-width="9" stroke-linecap="round" stroke-dasharray="1 23"/>
  <g filter="url(#shadow)">
    <path d="M166 160c45-15 89-8 134 22v124c-44-29-89-35-134-20z" fill="#fffdf8"/>
    <path d="M474 160c-45-15-89-8-134 22v124c44-29 89-35 134-20z" fill="#fffdf8"/>
    <path d="M320 183v123" stroke="#d9c8aa" stroke-width="4"/>
    <path d="M187 186c34-6 66 1 94 17M187 214c34-6 66 1 94 17M359 203c28-16 60-23 94-17M359 231c28-16 60-23 94-17" fill="none" stroke="#9fb5be" stroke-width="5" stroke-linecap="round"/>
  </g>
  <g transform="translate(70 176) rotate(-5)" filter="url(#shadow)">
    <path d="M18 42c0-24 19-42 43-42h42c24 0 43 18 43 42v112H18z" fill="#e6ad57"/>
    <path d="M44 0c2-25 74-25 76 0" fill="none" stroke="#f7e7ca" stroke-width="12" stroke-linecap="round"/>
    <rect x="41" y="69" width="82" height="60" rx="20" fill="#f7e7ca"/>
    <path d="M18 55H2v77M146 55h16v77" fill="none" stroke="#f7e7ca" stroke-width="10" stroke-linecap="round"/>
  </g>
  <g transform="translate(465 47) rotate(20)" filter="url(#shadow)">
    <rect width="40" height="142" rx="18" fill="#e6ad57"/>
    <path d="M0 22h40" stroke="#17324d" stroke-width="6"/>
    <path d="M0 142h40l-20 34z" fill="#f7e7ca"/>
    <path d="M14 162l6 14 6-14z" fill="#17324d"/>
  </g>
  <g fill="#e6ad57">
    <path d="M114 86l6 14 14 6-14 6-6 14-6-14-14-6 14-6z"/>
    <path d="M530 92l5 12 12 5-12 5-5 12-5-12-12-5 12-5z"/>
    <circle cx="417" cy="84" r="8"/><circle cx="557" cy="169" r="6"/><circle cx="91" cy="151" r="6"/>
  </g>
</svg>
